<svg width="29" height="36" viewBox="0 0 29 36" fill="none" xmlns="http://www.w3.org/2000/svg">
<g clip-path="url(#clip0_47_30)">
<path d="M28.0916 12.2824C25.7157 13.7647 24.2482 16.3059 24.2482 19.1294C24.2482 22.3059 26.1349 25.2 29 26.4C28.441 28.2353 27.6024 29.9294 26.5542 31.4824C25.0169 33.6706 23.4096 35.9294 21.0337 35.9294C18.6578 35.9294 17.959 34.5176 15.1639 34.5176C12.4386 34.5176 11.4602 36 9.2241 36C6.98795 36 5.4506 33.9529 3.70361 31.4118C1.39759 27.8824 0.0698795 23.7882 0 19.4824C0 12.4941 4.47229 8.75294 8.94458 8.75294C11.3205 8.75294 13.2771 10.3059 14.7446 10.3059C16.1422 10.3059 18.3783 8.68235 21.0337 8.68235C23.8289 8.61177 26.4843 9.95294 28.0916 12.2824ZM19.7759 5.71765C20.9639 4.30588 21.5928 2.54118 21.6627 0.705882C21.6627 0.494118 21.6627 0.211765 21.5928 0C19.5663 0.211765 17.6795 1.2 16.3518 2.75294C15.1639 4.09412 14.4651 5.78824 14.3952 7.62353C14.3952 7.83529 14.3952 8.04706 14.4651 8.25882C14.6048 8.25882 14.8145 8.32941 14.9542 8.32941C16.841 8.18824 18.588 7.2 19.7759 5.71765Z" fill="black"/>
</g>
<defs>
<clipPath id="clip0_47_30">
<rect width="29" height="36" fill="white"/>
</clipPath>
</defs>
</svg>
