<svg width="15" height="15" viewBox="0 0 15 15" fill="none" xmlns="http://www.w3.org/2000/svg">
<g clip-path="url(#clip0_47_48)">
<path d="M13.9496 2.76938L5.31276 11.4056C5.25469 11.4639 5.18568 11.5102 5.10969 11.5417C5.0337 11.5733 4.95223 11.5896 4.86995 11.5896C4.78766 11.5896 4.70619 11.5733 4.6302 11.5417C4.55421 11.5102 4.4852 11.4639 4.42713 11.4056L1.08713 8.0625C1.02907 8.00421 0.960057 7.95795 0.884068 7.92639C0.808079 7.89482 0.726605 7.87857 0.644321 7.87857C0.562038 7.87857 0.480564 7.89482 0.404575 7.92639C0.328586 7.95795 0.259577 8.00421 0.201509 8.0625V8.0625C0.143211 8.12057 0.0969531 8.18958 0.0653896 8.26557C0.033826 8.34156 0.0175781 8.42303 0.0175781 8.50532C0.0175781 8.5876 0.033826 8.66907 0.0653896 8.74506C0.0969531 8.82105 0.143211 8.89006 0.201509 8.94813L3.54276 12.2888C3.89523 12.6406 4.37288 12.8382 4.87088 12.8382C5.36889 12.8382 5.84654 12.6406 6.19901 12.2888L14.8353 3.65438C14.8935 3.59632 14.9396 3.52735 14.9711 3.45142C15.0027 3.37549 15.0189 3.29409 15.0189 3.21188C15.0189 3.12967 15.0027 3.04827 14.9711 2.97234C14.9396 2.89641 14.8935 2.82744 14.8353 2.76938C14.7772 2.71108 14.7082 2.66482 14.6322 2.63326C14.5562 2.6017 14.4747 2.58545 14.3924 2.58545C14.3102 2.58545 14.2287 2.6017 14.1527 2.63326C14.0767 2.66482 14.0077 2.71108 13.9496 2.76938Z" fill="#0DCB76"/>
</g>
<defs>
<clipPath id="clip0_47_48">
<rect width="15" height="15" fill="white"/>
</clipPath>
</defs>
</svg>
