<svg width="43" height="42" viewBox="0 0 43 42" fill="none" xmlns="http://www.w3.org/2000/svg">
<path d="M40.42 21.4375C40.42 20.0725 40.2946 18.76 40.0617 17.5H21.5V24.9463H32.1067C31.6498 27.3525 30.2613 29.3913 28.174 30.7563V35.5862H34.5433C38.27 32.235 40.42 27.3 40.42 21.4375Z" fill="#4285F4"/>
<path d="M21.4998 40.25C26.821 40.25 31.2823 38.5262 34.5431 35.5862L28.1737 30.7562C26.4089 31.9112 24.1514 32.5937 21.4998 32.5937C16.3667 32.5937 12.0219 29.2075 10.4721 24.6575H3.8877V29.645C7.13061 35.9362 13.7956 40.25 21.4998 40.25Z" fill="#34A853"/>
<path d="M10.4726 24.6575C10.0785 23.5025 9.85449 22.2687 9.85449 21C9.85449 19.7312 10.0785 18.4975 10.4726 17.3425V12.355H3.88824C2.50866 15.0375 1.79078 17.9981 1.79199 21C1.79199 24.1062 2.55345 27.0462 3.88824 29.645L10.4726 24.6575Z" fill="#FBBC05"/>
<path d="M21.4998 9.40625C24.3933 9.40625 26.9912 10.3775 29.0337 12.285L34.6864 6.76375C31.2733 3.6575 26.8121 1.75 21.4998 1.75C13.7956 1.75 7.13061 6.06375 3.8877 12.355L10.4721 17.3425C12.0219 12.7925 16.3667 9.40625 21.4998 9.40625Z" fill="#EA4335"/>
</svg>
