<?xml version="1.0" encoding="utf-8"?>
<!-- Generator: Adobe Illustrator 27.9.0, SVG Export Plug-In . SVG Version: 6.00 Build 0)  -->
<svg version="1.1" id="Layer_1" xmlns="http://www.w3.org/2000/svg" xmlns:xlink="http://www.w3.org/1999/xlink" x="0px" y="0px"
	 viewBox="0 0 21 21" style="enable-background:new 0 0 21 21;" xml:space="preserve">
<style type="text/css">
	.st0{fill:#95A39D;}
	.st1{fill:#EEF2F0;}
</style>
<g>
	<path class="st0" d="M10.5,0L10.5,0C16.3,0,21,4.7,21,10.5l0,0C21,16.3,16.3,21,10.5,21l0,0C4.7,21,0,16.3,0,10.5l0,0
		C0,4.7,4.7,0,10.5,0z"/>
</g>
<g>
	<path class="st1" d="M10.5,10.7c-0.9,0-1.7-0.3-2.3-1c-0.6-0.6-1-1.4-1-2.3s0.3-1.7,1-2.3c1.2-1.2,3.4-1.2,4.6,0
		c0.6,0.6,1,1.4,1,2.3c0,0.9-0.3,1.7-1,2.3C12.2,10.3,11.4,10.7,10.5,10.7z M10.5,6.1c-0.3,0-0.7,0.1-0.9,0.4
		C9.4,6.7,9.2,7.1,9.2,7.4c0,0.3,0.1,0.7,0.4,0.9c0.5,0.5,1.3,0.5,1.8,0c0.2-0.2,0.4-0.6,0.4-0.9s-0.1-0.7-0.4-0.9
		C11.2,6.3,10.8,6.1,10.5,6.1z"/>
</g>
<g>
	<path class="st1" d="M15.1,16.9c-0.6,0-1-0.4-1-1v-1.1c0-0.3-0.1-0.6-0.4-0.8c-0.2-0.2-0.6-0.4-0.9-0.4H8.2c-0.4,0-0.7,0.1-0.9,0.4
		c-0.2,0.2-0.4,0.5-0.4,0.8v1.1c0,0.6-0.4,1-1,1s-1-0.4-1-1v-1.1c0-0.8,0.4-1.7,1-2.2c0.6-0.6,1.4-0.9,2.3-0.9h4.6
		c0.9,0,1.7,0.3,2.3,0.9c0.6,0.6,1,1.4,1,2.2v1.1C16.1,16.4,15.6,16.9,15.1,16.9z"/>
</g>
</svg>
