<svg width="284" height="114" viewBox="0 0 284 114" fill="none" xmlns="http://www.w3.org/2000/svg">
<path d="M136.965 71.0238H127.311V62.6069H136.965C139.174 62.6069 140.998 64.4923 140.998 66.8265C140.976 69.1384 139.174 71.0238 136.965 71.0238ZM127.29 47.2769H136.15C138.359 47.2769 140.183 49.1622 140.183 51.4965C140.183 53.8084 138.381 55.7162 136.15 55.7162H127.29V47.2769ZM146.34 58.2076C147.713 56.3447 148.528 54.0104 148.528 51.4741C148.528 45.3466 143.765 40.3413 137.887 40.3413H118.451V55.6713V62.5844V77.9144H128.362H139.603C145.46 77.9144 150.244 72.9316 150.244 66.7817C150.244 63.3476 148.721 60.2501 146.34 58.2076Z" fill="black"/>
<path d="M179.146 32.9379C179.146 34.2615 178.621 35.3465 177.547 36.1927C176.473 37.0389 175.125 37.4512 173.457 37.4512C171.904 37.4512 170.578 37.0606 169.505 36.2795C168.431 35.4983 167.791 34.4351 167.585 33.0898H171.812C172.132 33.871 172.703 34.2615 173.526 34.2615C174.028 34.2615 174.44 34.1313 174.782 33.871C175.102 33.6106 175.262 33.2851 175.262 32.8728C175.262 32.4823 175.102 32.1568 174.782 31.9181C174.463 31.6794 174.028 31.5492 173.457 31.5492H172.018V28.7501H173.343C173.868 28.7501 174.303 28.6416 174.622 28.4029C174.942 28.1859 175.102 27.8822 175.102 27.5133C175.102 27.101 174.965 26.7755 174.668 26.5151C174.371 26.2765 173.96 26.1463 173.457 26.1463C172.955 26.1463 172.543 26.3199 172.201 26.6453C171.995 26.8406 171.858 27.101 171.766 27.4265H167.745C167.974 26.0378 168.614 24.9529 169.619 24.1717C170.647 23.3906 171.904 23 173.434 23C175.034 23 176.359 23.4123 177.387 24.2368C178.415 25.0613 178.941 26.1029 178.941 27.3831C178.941 28.5548 178.438 29.4445 177.433 30.0737C178.575 30.7247 179.146 31.6577 179.146 32.9379Z" fill="black"/>
<path d="M118.451 33.3432V28.7805H104V89.4756H118.451V84.8906H108.695V33.3432H118.451Z" fill="black"/>
<path d="M150.244 84.8906V89.4756H164.695V28.7805H150.244V33.3432H160.023V84.8906H150.244Z" fill="black"/>
</svg>
