<svg width="200" height="34" viewBox="0 0 200 34" fill="none" xmlns="http://www.w3.org/2000/svg">
<path d="M46.697 16.4285C46.697 22.0096 43.0959 26.1144 38.1284 26.1144C34.9962 26.1144 32.7267 24.5667 31.8274 22.55H31.1075V33.2067H28.2996V7.28288H31.1075V10.3784H31.864C32.7286 8.36174 34.9596 6.81396 38.1284 6.81396C43.1692 6.81396 46.697 10.8821 46.697 16.4267V16.4285ZM37.4433 23.5574C41.0444 23.5574 43.8158 20.6762 43.8158 16.4285C43.8158 12.1808 41.0426 9.371 37.3701 9.371C33.4448 9.371 30.9976 12.5746 30.9976 16.4285C30.9976 21.037 33.9137 23.5574 37.4433 23.5574Z" fill="white"/>
<path d="M56.0588 31.5874L57.5351 30.58C57.7512 31.0123 58.1835 31.2284 58.6158 31.2284C59.2642 31.2284 59.8394 30.7595 59.8394 29.9682C59.8394 29.2483 59.2624 28.7794 58.6158 28.7794C58.1469 28.7794 57.7512 29.0322 57.5351 29.3912L55.9141 28.3105L56.6339 25.9696C52.0254 25.2131 48.8566 21.4325 48.8566 16.465C48.8566 10.9205 52.9247 6.81567 58.3264 6.81567C61.7828 6.81567 65.1677 8.50815 66.6441 12.2173L64.2317 13.4775C63.5485 11.4608 61.3505 9.44414 58.3264 9.44414C54.5091 9.44414 51.7726 12.3968 51.7726 16.465C51.7726 20.5332 54.6539 23.4859 58.3264 23.4859C60.9915 23.4859 63.5833 22.0809 64.664 19.0568L66.9683 20.209C65.4919 24.3504 62.1803 26.0429 58.5425 26.1143L57.8227 28.0577H58.3996C58.5077 27.7702 58.94 27.3745 59.6232 27.3745C60.8834 27.3745 61.7828 28.5633 61.7828 30.0396C61.7828 31.7321 60.5226 33.0289 58.614 33.0289C57.4985 33.0289 56.5625 32.5252 56.0569 31.5892L56.0588 31.5874Z" fill="white"/>
<path d="M69.1296 16.4651C69.1296 10.8125 73.1264 6.81575 78.6709 6.81575C84.2154 6.81575 88.2121 10.8125 88.2121 16.4651C88.2121 22.1177 84.2154 26.1144 78.6709 26.1144C73.1264 26.1144 69.1296 22.1543 69.1296 16.4651ZM78.6709 23.5574C82.5229 23.5574 85.2961 20.7128 85.2961 16.4651C85.2961 12.2174 82.5229 9.37095 78.6709 9.37095C74.8189 9.37095 72.0457 12.3603 72.0457 16.4651C72.0457 20.5699 74.8189 23.5574 78.6709 23.5574ZM76.1871 0.225342C77.0865 0.225342 77.843 0.620986 78.4548 0.981828L79.3541 1.52218C79.7864 1.77495 80.2187 2.02589 80.6143 2.02589C81.4056 2.02589 81.946 1.37747 81.946 0.370045H82.3068L83.9993 1.12653C83.9278 3.06995 82.7024 4.40342 80.8671 4.40342C79.9659 4.40342 79.3193 4.07921 78.6343 3.64693L77.7697 3.10658C77.3741 2.85381 76.9766 2.60287 76.4381 2.60287C75.6468 2.60287 75.1064 3.25129 75.1064 4.25872H74.7456L73.0531 3.50223C73.1245 1.55881 74.3499 0.225342 76.1853 0.225342H76.1871Z" fill="white"/>
<path d="M90.3737 16.2838C90.3737 10.3784 94.5499 6.81396 99.3746 6.81396C104.992 6.81396 108.267 11.0268 107.98 16.1043L107.908 17.3645H93.1816C93.5425 21.037 95.6654 23.5574 99.4826 23.5574C101.966 23.5574 103.912 22.55 105.208 20.4252L107.333 21.7935C105.928 24.3853 103.084 26.1144 99.4845 26.1144C93.9033 26.1144 90.3755 21.973 90.3755 16.2856L90.3737 16.2838ZM105.208 14.8441C105.208 11.7119 102.76 9.29956 99.3746 9.29956C95.8101 9.29956 93.722 11.7119 93.2531 14.8441H105.207H105.208Z" fill="white"/>
<path d="M109.78 20.5333L112.409 19.8134C113.021 22.3338 115.109 23.594 117.629 23.594C120.582 23.594 122.274 22.3338 122.274 20.6047C122.274 19.165 121.302 18.3005 119.213 17.8316L116.153 17.1483C113.416 16.5366 111.112 15.2764 111.112 11.9995C111.112 9.08342 113.596 6.81396 117.845 6.81396C121.446 6.81396 124.218 8.75922 124.939 12.0343L122.382 12.7541C122.021 10.666 120.223 9.29773 117.845 9.29773C115.468 9.29773 113.74 10.4865 113.74 11.9976C113.74 13.5088 114.821 14.1938 116.836 14.6627L119.931 15.3826C122.813 16.0658 125.009 17.5074 125.009 20.6029C125.009 23.8798 121.985 26.1126 117.484 26.1126C112.984 26.1126 110.572 23.7369 109.778 20.5315L109.78 20.5333Z" fill="white"/>
<path d="M131.145 26.1492V0.428635C134.819 0.392001 138.457 0.428635 142.131 0.428635C148.121 0.428635 151.281 4.94741 151.281 9.79771C151.281 14.648 148.011 18.8737 142.131 18.8737H136.657V26.1492H131.145ZM142.131 14.1718C144.483 14.1718 146.026 12.1148 146.026 9.65301C146.026 7.19122 144.557 5.24414 142.131 5.24414C140.258 5.20751 138.42 5.24414 136.547 5.24414V14.1718H142.131Z" fill="white"/>
<path d="M173.822 25.378V26.1492H167.944L162.652 17.6611H158.06V26.1492H152.548V0.428635C156.223 0.428635 159.86 0.392001 163.535 0.428635C169.413 0.428635 172.611 4.69097 172.611 9.24637C172.611 12.5159 170.957 15.3825 168.019 16.8149L173.823 25.3762L173.822 25.378ZM163.496 13.1424C165.812 13.1424 167.317 11.3418 167.281 9.13831C167.281 6.97142 165.848 5.24414 163.496 5.24414H157.985V13.1442H163.496V13.1424Z" fill="white"/>
<path d="M186.717 26.5631C179.394 26.5631 173.435 20.6046 173.435 13.2816C173.435 5.95848 179.394 0 186.717 0C194.04 0 200 5.95848 200 13.2816C200 20.6046 194.042 26.5631 186.717 26.5631ZM186.717 5.12689C182.22 5.12689 178.564 8.78477 178.564 13.2797C178.564 17.7747 182.222 21.4326 186.717 21.4326C191.212 21.4326 194.871 17.7747 194.871 13.2797C194.871 8.78477 191.213 5.12689 186.717 5.12689Z" fill="white"/>
<path d="M0 15.4062H10.6238V26.03L0 15.4062Z" fill="#0DCB76"/>
<path d="M12.994 0.0402832C5.83026 0.0402832 0 5.86871 0 13.0343H2.74753C2.74753 7.38352 7.34506 2.78781 12.994 2.78781C18.6429 2.78781 23.2404 7.38535 23.2404 13.0343C23.2404 18.6832 18.6429 23.2807 12.994 23.2807V26.0283C20.1595 26.0283 25.988 20.198 25.988 13.0343C25.988 5.87054 20.1577 0.0402832 12.994 0.0402832Z" fill="white"/>
</svg>
