<svg width="284" height="114" viewBox="0 0 284 114" fill="none" xmlns="http://www.w3.org/2000/svg">
<path d="M90.8265 39.2505L99.6936 61.0133L108.111 39.2505H114.846V74.0805H109.656L109.423 52.4917L101.794 69.5349H97.0324L89.816 52.7501V74.0858H84.0704V39.2505H90.8265Z" fill="black"/>
<path d="M141.786 58.5296H127.432V69.2449H144.209V74.0752H121.359V39.2505H144.04V44.1283H127.432V53.7467H141.786V58.5296Z" fill="black"/>
<path d="M157.419 69.2502H173.286V74.0805H151.346V39.2505H157.419V69.2502Z" fill="black"/>
<path d="M183.465 65.2952L191.317 39.2505H197.988L186.439 74.0805H180.555L169.302 39.2505H175.953L183.465 65.2952Z" fill="black"/>
<path d="M222.24 58.5296H207.887V69.2449H224.664V74.0752H201.813V39.2505H224.494V44.1283H207.887V53.7467H222.24V58.5296Z" fill="black"/>
<path d="M243.101 60.6864H236.335V74.0858H230.261V39.2505H242.551C246.583 39.2505 249.693 40.1522 251.889 41.9557C254.079 43.7591 255.175 46.3694 255.175 49.7865C255.175 52.1173 254.608 54.0684 253.482 55.6398C252.355 57.2113 250.783 58.4188 248.768 59.2678L256.614 73.7746V74.0858H250.111L243.101 60.6864ZM236.335 55.8086H242.572C244.62 55.8086 246.223 55.2918 247.371 54.2635C248.524 53.2352 249.101 51.8273 249.101 50.0396C249.101 48.252 248.567 46.728 247.503 45.7103C246.44 44.6872 244.853 44.1652 242.736 44.1283H236.329V55.8033L236.335 55.8086Z" fill="black"/>
<path d="M68.3728 77.0769H27V37H42.8772V41.9358H32.0261V72.0409H63.3572V61.6315H68.3728V77.0769Z" fill="black"/>
<path d="M62.9816 58.2051V43.2026H47.9298L62.9816 58.2051Z" fill="black"/>
</svg>
