<svg width="284" height="114" viewBox="0 0 284 114" fill="none" xmlns="http://www.w3.org/2000/svg">
<path d="M255.526 31.4514H244.534L225.493 47.8666V37.2636L218.173 43.5865V62.3119C218.173 62.8469 218.805 63.1388 219.194 62.7983L255.502 31.4514H255.526Z" fill="black"/>
<path d="M156.257 49.7637H156.354C158.276 49.7637 159.832 51.3201 159.832 53.2413C159.832 55.1624 158.276 56.7188 156.354 56.7188H156.257C154.336 56.7188 152.78 55.1624 152.78 53.2413C152.78 51.3201 154.336 49.7637 156.257 49.7637Z" fill="black"/>
<path d="M153.363 60.3906H159.248V83.8096H153.363V60.3906Z" fill="black"/>
<path d="M202.317 81.9615C202.317 81.9615 202.171 81.7913 202.074 81.8886C201.441 82.5695 200.566 83.1531 199.374 83.6882C198.085 84.2718 196.626 84.588 195.021 84.588C194.048 84.588 193.1 84.442 192.151 84.1502C191.203 83.8584 190.352 83.3963 189.549 82.7641C188.771 82.1318 188.139 81.3536 187.652 80.3808C187.166 79.4081 186.923 78.2894 186.923 76.9762C186.923 75.663 187.166 74.447 187.677 73.4013C188.188 72.3556 188.868 71.4801 189.768 70.7506C190.668 70.021 191.762 69.486 193.027 69.1212C194.291 68.7565 195.702 68.5619 197.234 68.5619C197.696 68.5619 198.207 68.5619 198.79 68.5862C199.35 68.5862 199.909 68.6349 200.444 68.6592C201.028 68.7078 201.66 68.7321 202.292 68.7564V68.1971C202.292 67.0298 201.83 66.1057 200.882 65.4491C199.933 64.7925 198.718 64.452 197.234 64.452C195.58 64.452 194.243 64.6709 193.221 65.1086C192.224 65.5464 191.349 66.0084 190.571 66.5191L187.871 62.5065C188.333 62.1661 188.868 61.8256 189.476 61.4851C190.084 61.1447 190.765 60.8285 191.568 60.5367C192.37 60.2692 193.294 60.026 194.34 59.8315C195.386 59.6369 196.602 59.564 198.012 59.564C199.496 59.564 200.858 59.7828 202.074 60.1963C203.289 60.6097 204.335 61.1933 205.186 61.9472C206.062 62.7011 206.718 63.6009 207.18 64.6466C207.642 65.6923 207.886 66.8353 207.886 68.0755V83.8098H202.39L202.268 81.9615H202.317ZM202.317 73.2554C201.733 73.2068 201.125 73.1825 200.566 73.1581C200.104 73.1095 199.617 73.1095 199.082 73.0852C198.572 73.0852 198.11 73.0609 197.769 73.0609C195.872 73.0609 194.535 73.4257 193.756 74.1795C192.978 74.9334 192.614 75.7846 192.614 76.7573C192.614 77.7301 192.978 78.5326 193.684 79.1162C194.535 79.7972 195.872 80.0647 197.696 79.9431C198.863 79.7242 199.812 79.3108 200.614 78.6785C201.125 78.2894 201.514 77.803 201.855 77.268C202.195 76.733 202.341 76.1737 202.341 75.5657V73.2797L202.317 73.2554Z" fill="black"/>
<path d="M28 50.4929H34.3472L50.4948 74.1794V50.4929H56.6475V83.8096H50.4462L34.1526 59.8313V83.8096H28V50.4929Z" fill="black"/>
<path d="M83.544 80.4537L82.7172 81.2806C82.2794 81.7183 81.6228 82.2047 80.7717 82.7154C79.9205 83.2261 78.8505 83.6638 77.513 84.0529C76.1754 84.442 74.619 84.6365 72.7951 84.6365C70.9712 84.6365 69.2203 84.3204 67.6882 83.6881C66.1561 83.0558 64.8429 82.1803 63.7729 81.0617C62.6785 79.943 61.8517 78.6055 61.2681 77.0491C60.6844 75.4927 60.3926 73.7417 60.3926 71.8449C60.3926 70.1182 60.6844 68.5132 61.2681 67.0298C61.8517 65.5463 62.6785 64.2574 63.7242 63.1631C64.77 62.0687 66.0345 61.1933 67.4693 60.561C68.9041 59.9287 70.5335 59.6125 72.2844 59.6125C74.4002 59.6125 76.2241 60.0017 77.7075 60.7799C79.191 61.5581 80.3826 62.5794 81.2824 63.8683C82.1822 65.1572 82.8388 66.5677 83.2279 68.1728C83.617 69.7778 83.8115 71.4071 83.8115 73.0851V73.9363H66.3264C66.3264 74.8118 66.5209 75.59 66.91 76.2952C67.2991 77.0005 67.7855 77.5841 68.3934 78.0948C69.0257 78.6055 69.7067 78.9703 70.4849 79.2378C71.2631 79.5053 72.0413 79.6269 72.8195 79.6269C73.9624 79.6269 74.9352 79.5296 75.7863 79.2864C76.6375 79.0676 77.3671 78.8244 77.975 78.5325C78.5587 78.265 79.0694 77.9489 79.4585 77.6327C79.8476 77.3166 80.1394 77.0734 80.334 76.8546L83.5197 80.478L83.544 80.4537ZM77.8048 69.6562C77.8048 69.0726 77.6832 68.4646 77.4643 67.8566C77.2212 67.273 76.8807 66.7136 76.443 66.2273C76.0052 65.7409 75.4216 65.3518 74.7163 65.0356C74.0111 64.7195 73.2329 64.5493 72.3088 64.5493C71.336 64.5493 70.4849 64.7195 69.731 65.0356C68.9771 65.3518 68.3448 65.7409 67.8584 66.2273C67.3477 66.7136 66.983 67.2486 66.7155 67.8566C66.4479 68.4646 66.3264 69.0482 66.3264 69.6562H77.8291H77.8048Z" fill="black"/>
<path d="M87.5079 50.4929H93.393V83.8096H87.5079V50.4929Z" fill="black"/>
<path d="M97.0897 72.0885C97.0897 70.3861 97.3815 68.7811 98.0138 67.2733C98.6461 65.7656 99.4973 64.428 100.592 63.2851C101.686 62.1421 102.999 61.2423 104.58 60.5857C106.161 59.9291 107.839 59.5886 109.711 59.5886C111.584 59.5886 113.286 59.9291 114.842 60.5857C116.399 61.2423 117.712 62.1664 118.831 63.2851C119.925 64.428 120.776 65.7413 121.408 67.2733C122.041 68.8054 122.333 70.3861 122.333 72.0885C122.333 73.7908 122.041 75.3958 121.408 76.9036C120.776 78.4113 119.925 79.7489 118.831 80.9162C117.736 82.0835 116.423 82.9833 114.842 83.6399C113.286 84.2965 111.584 84.6369 109.711 84.6369C107.839 84.6369 106.136 84.2965 104.58 83.6399C103.024 82.9833 101.71 82.0591 100.592 80.9162C99.4973 79.7732 98.6461 78.4356 98.0138 76.9036C97.4059 75.3958 97.0897 73.7665 97.0897 72.0885ZM109.687 79.53C110.83 79.53 111.803 79.3111 112.629 78.8491C113.456 78.4113 114.137 77.8034 114.696 77.0738C115.256 76.3442 115.645 75.5417 115.937 74.6662C116.204 73.7908 116.326 72.9396 116.326 72.0641C116.326 71.1887 116.204 70.3618 115.937 69.4864C115.669 68.6109 115.256 67.8083 114.696 67.0788C114.137 66.3735 113.456 65.7899 112.629 65.3278C111.803 64.8658 110.83 64.6469 109.687 64.6469C108.544 64.6469 107.571 64.8658 106.744 65.3278C105.917 65.7656 105.236 66.3492 104.677 67.0788C104.118 67.8083 103.729 68.5866 103.437 69.4864C103.169 70.3618 103.048 71.2373 103.048 72.0641C103.048 72.891 103.169 73.7908 103.437 74.6662C103.704 75.5417 104.118 76.3199 104.677 77.0738C105.236 77.8034 105.917 78.387 106.744 78.8491C107.571 79.2868 108.544 79.53 109.687 79.53Z" fill="black"/>
<path d="M130.139 87.6282C131.087 88.2605 132.084 88.7226 133.154 89.0144C134.249 89.2819 135.513 89.4278 136.972 89.4278C138.431 89.4278 139.793 88.9657 140.815 88.0173C141.836 87.0689 142.371 85.78 142.371 84.1263V81.5728C141.568 82.2538 140.693 82.7645 139.745 83.2022C138.796 83.64 137.532 83.8345 135.975 83.8345C134.273 83.8345 132.765 83.567 131.452 82.9833C130.139 82.424 128.996 81.6215 128.072 80.6001C127.123 79.5787 126.442 78.3871 125.956 77.0009C125.469 75.6148 125.226 74.0827 125.226 72.429C125.226 70.7753 125.518 69.0487 126.15 67.5166C126.783 65.9845 127.634 64.647 128.801 63.504C129.968 62.361 131.33 61.4856 132.984 60.829C134.613 60.1723 136.437 59.8562 138.48 59.8562C140.523 59.8562 142.395 60.0264 144.098 60.3669C145.824 60.7074 147.21 61.0478 148.28 61.4126V84.1993C148.28 85.8286 148.013 87.2878 147.429 88.5523C146.87 89.8169 146.092 90.8869 145.07 91.7381C144.073 92.6136 142.882 93.2459 141.52 93.7079C140.158 94.1456 138.675 94.3888 137.069 94.3888C135.829 94.3888 134.735 94.3402 133.786 94.2186C132.838 94.097 131.987 93.9511 131.233 93.7322C130.479 93.5133 129.798 93.2945 129.19 92.9783C128.582 92.6622 127.999 92.3218 127.464 91.9327L130.163 87.6039L130.139 87.6282ZM142.371 65.4981C141.909 65.3279 141.423 65.2063 140.912 65.1334C140.401 65.0604 139.623 65.0118 138.553 65.0118C137.361 65.0118 136.316 65.2063 135.416 65.5954C134.516 65.9845 133.762 66.5439 133.106 67.2005C132.473 67.8571 131.987 68.6353 131.671 69.5351C131.355 70.4105 131.184 71.3347 131.184 72.3074C131.184 74.107 131.622 75.6148 132.522 76.855C133.422 78.0953 134.881 78.7032 136.875 78.7032C138.675 78.7032 140.036 78.3141 140.936 77.5603C141.836 76.7821 142.322 75.5661 142.322 73.9125V65.5225L142.371 65.4981Z" fill="black"/>
<path d="M184.686 80.7459C183.591 81.9132 182.278 82.8373 180.795 83.5426C179.311 84.2478 177.536 84.5883 175.542 84.5883C173.548 84.5883 171.772 84.2965 170.192 83.6885C168.611 83.0805 167.322 82.2294 166.252 81.135C165.182 80.0407 164.355 78.7275 163.796 77.1954C163.236 75.6633 162.945 73.961 162.945 72.0885C162.945 70.3861 163.236 68.7811 163.869 67.2733C164.501 65.7656 165.352 64.428 166.446 63.2851C167.541 62.1421 168.854 61.2423 170.435 60.5857C171.991 59.9291 173.693 59.5886 175.566 59.5886C177.439 59.5886 179.189 59.9291 180.77 60.61C182.351 61.2909 183.664 62.215 184.783 63.3823L181.038 67.1761C180.381 66.3979 179.579 65.8142 178.679 65.3765C177.779 64.9387 176.758 64.7199 175.566 64.7199C174.374 64.7199 173.45 64.9387 172.623 65.3522C171.797 65.7656 171.116 66.3006 170.556 66.9815C169.997 67.6381 169.608 68.4406 169.316 69.3404C169.049 70.2402 168.927 71.14 168.927 72.0885C168.927 73.0369 169.049 73.8637 169.316 74.7392C169.584 75.6147 169.997 76.3929 170.556 77.0981C171.116 77.8034 171.797 78.3627 172.623 78.8004C173.45 79.2382 174.423 79.457 175.566 79.457C176.709 79.457 177.803 79.2382 178.752 78.7761C179.725 78.3384 180.527 77.7304 181.208 76.9522L184.71 80.7459H184.686Z" fill="black"/>
<path d="M219.607 82.0099C219.364 81.6208 219.17 81.3533 218.999 81.1831C218.902 81.0858 218.781 81.0128 218.635 80.9642C218.999 80.9399 219.291 80.8183 219.486 80.5994C219.68 80.3805 219.802 80.113 219.802 79.7969C219.802 79.578 219.729 79.3835 219.607 79.1889C219.486 78.9944 219.316 78.8484 219.097 78.7998C218.878 78.7268 218.537 78.6782 218.051 78.6782H216.762C216.762 78.6782 216.641 78.7512 216.641 78.7998V82.7881H217.297V81.0371H217.686C217.929 81.0371 218.1 81.0858 218.221 81.1831C218.392 81.3046 218.635 81.6208 218.927 82.1558L219.291 82.8124H220.118L219.607 82.0099ZM218.124 80.5021H217.321V79.2375H218.075C218.416 79.2375 218.635 79.2619 218.756 79.3105C218.878 79.3591 218.975 79.4321 219.024 79.5294C219.097 79.6267 219.121 79.7482 219.121 79.8698C219.121 80.0644 219.048 80.2103 218.902 80.3319C218.756 80.4292 218.489 80.5021 218.1 80.5021H218.124Z" fill="black"/>
<path d="M218.197 77.5599C219.948 77.5599 221.358 78.9947 221.358 80.7214C221.358 82.448 219.924 83.8828 218.197 83.8828C216.47 83.8828 215.036 82.448 215.036 80.7214C215.036 78.9947 216.47 77.5599 218.197 77.5599ZM218.197 76.9033C216.081 76.9033 214.355 78.63 214.355 80.7457C214.355 82.8614 216.081 84.5881 218.197 84.5881C220.313 84.5881 222.039 82.8614 222.039 80.7457C222.039 78.63 220.313 76.9033 218.197 76.9033Z" fill="black"/>
<path d="M196.967 50.4931H207.959L227 34.0779V44.6809L234.32 38.358V19.6326C234.32 19.0976 233.688 18.8058 233.299 19.1462L196.991 50.4931H196.967Z" fill="black"/>
</svg>
