<svg width="24" height="24" viewBox="0 0 24 24" fill="none" xmlns="http://www.w3.org/2000/svg">
<g clip-path="url(#clip0_47_54)">
<path d="M23.2706 9.41879C21.7196 6.89279 18.1916 2.65479 11.9996 2.65479C5.80756 2.65479 2.27956 6.89279 0.728563 9.41879C0.249091 10.1943 -0.00488281 11.088 -0.00488281 11.9998C-0.00488281 12.9115 0.249091 13.8053 0.728563 14.5808C2.27956 17.1068 5.80756 21.3448 11.9996 21.3448C18.1916 21.3448 21.7196 17.1068 23.2706 14.5808C23.75 13.8053 24.004 12.9115 24.004 11.9998C24.004 11.088 23.75 10.1943 23.2706 9.41879V9.41879ZM21.5656 13.5338C20.2336 15.6998 17.2186 19.3448 11.9996 19.3448C6.78056 19.3448 3.76556 15.6998 2.43356 13.5338C2.1487 13.0728 1.99781 12.5417 1.99781 11.9998C1.99781 11.4579 2.1487 10.9267 2.43356 10.4658C3.76556 8.29979 6.78056 4.65479 11.9996 4.65479C17.2186 4.65479 20.2336 8.29578 21.5656 10.4658C21.8504 10.9267 22.0013 11.4579 22.0013 11.9998C22.0013 12.5417 21.8504 13.0728 21.5656 13.5338V13.5338Z" fill="#6C6C6C"/>
<path d="M12 6.99976C11.0111 6.99976 10.0444 7.293 9.22215 7.84241C8.39991 8.39181 7.75904 9.17271 7.3806 10.0863C7.00217 11 6.90315 12.0053 7.09608 12.9752C7.289 13.9451 7.76521 14.836 8.46447 15.5353C9.16373 16.2346 10.0546 16.7108 11.0246 16.9037C11.9945 17.0966 12.9998 16.9976 13.9134 16.6192C14.827 16.2407 15.6079 15.5999 16.1574 14.7776C16.7068 13.9554 17 12.9887 17 11.9998C16.9984 10.6742 16.4711 9.40331 15.5338 8.46598C14.5964 7.52864 13.3256 7.00134 12 6.99976V6.99976ZM12 14.9998C11.4067 14.9998 10.8266 14.8238 10.3333 14.4942C9.83994 14.1645 9.45543 13.696 9.22836 13.1478C9.0013 12.5996 8.94189 11.9964 9.05765 11.4145C9.1734 10.8325 9.45912 10.298 9.87868 9.87844C10.2982 9.45888 10.8328 9.17316 11.4147 9.0574C11.9967 8.94164 12.5999 9.00105 13.1481 9.22812C13.6962 9.45518 14.1648 9.8397 14.4944 10.333C14.8241 10.8264 15 11.4064 15 11.9998C15 12.7954 14.6839 13.5585 14.1213 14.1211C13.5587 14.6837 12.7957 14.9998 12 14.9998Z" fill="#6C6C6C"/>
</g>
<defs>
<clipPath id="clip0_47_54">
<rect width="24" height="24" fill="white"/>
</clipPath>
</defs>
</svg>
