<svg width="21" height="21" viewBox="0 0 21 21" fill="none" xmlns="http://www.w3.org/2000/svg">
<g id="pesquisa">
<path id="Vector" d="M13.5625 13.5625L16.625 16.625" stroke="white" stroke-width="2" stroke-linecap="round" stroke-linejoin="round"/>
<path id="Vector_2" d="M4.375 9.625C4.375 10.3144 4.5108 10.9971 4.77463 11.6341C5.03847 12.271 5.42518 12.8498 5.91269 13.3373C6.4002 13.8248 6.97895 14.2115 7.61591 14.4754C8.25287 14.7392 8.93556 14.875 9.625 14.875C10.3144 14.875 10.9971 14.7392 11.6341 14.4754C12.271 14.2115 12.8498 13.8248 13.3373 13.3373C13.8248 12.8498 14.2115 12.271 14.4754 11.6341C14.7392 10.9971 14.875 10.3144 14.875 9.625C14.875 8.23261 14.3219 6.89726 13.3373 5.91269C12.3527 4.92812 11.0174 4.375 9.625 4.375C8.23261 4.375 6.89726 4.92812 5.91269 5.91269C4.92812 6.89726 4.375 8.23261 4.375 9.625Z" stroke="white" stroke-width="2" stroke-linecap="round" stroke-linejoin="round"/>
</g>
</svg>
