<svg width="30" height="30" viewBox="0 0 30 30" fill="none" xmlns="http://www.w3.org/2000/svg">
<g clip-path="url(#clip0_318_4429)">
<path d="M7.78 6.88L19.36 22.36H21.98L10.41 6.88H7.78Z" fill="black"/>
<path d="M21.83 0H7.88999C3.67999 0 0.23999 3.44 0.23999 7.65V21.59C0.23999 25.8 3.67999 29.24 7.88999 29.24H21.83C26.04 29.24 29.48 25.8 29.48 21.59V7.65C29.48 3.44 26.04 0 21.83 0ZM18.74 23.6L13.47 16.55L6.94999 23.6H5.26999L12.72 15.55L5.31999 5.65H11.03L15.88 12.14L21.89 5.65H23.57L16.63 13.14L24.45 23.6H18.74Z" fill="black"/>
</g>
<defs>
<clipPath id="clip0_318_4429">
<rect width="29.24" height="29.24" fill="white" transform="translate(0.23999)"/>
</clipPath>
</defs>
</svg>
