<svg width="30" height="30" viewBox="0 0 30 30" fill="none" xmlns="http://www.w3.org/2000/svg">
<g clip-path="url(#clip0_318_4427)">
<path d="M29.24 7.65C29.24 3.44 25.8 0 21.59 0H7.65C3.44 0 0 3.44 0 7.65V21.59C0 25.8 3.44 29.24 7.65 29.24H12.34V19.33H8.63V15.1H12.34V11.88C12.34 8.22 14.52 6.19 17.86 6.19C19.46 6.19 21.13 6.48 21.13 6.48V10.08H19.29C17.47 10.08 16.91 11.21 16.91 12.36V15.1H20.97L20.32 19.33H16.91V29.24H21.6C25.81 29.24 29.25 25.8 29.25 21.59V7.65H29.24Z" fill="black"/>
</g>
<defs>
<clipPath id="clip0_318_4427">
<rect width="29.24" height="29.24" fill="white"/>
</clipPath>
</defs>
</svg>
