<svg width="30" height="30" viewBox="0 0 30 30" fill="none" xmlns="http://www.w3.org/2000/svg">
<g clip-path="url(#clip0_318_4432)">
<path d="M29.72 7.65C29.72 3.44 26.28 0 22.07 0H8.12998C3.91998 0 0.47998 3.44 0.47998 7.65V21.59C0.47998 25.8 3.91998 29.24 8.12998 29.24H22.07C26.28 29.24 29.72 25.8 29.72 21.59V7.65ZM11.8 21H8.96998V11.9H11.8V21ZM10.38 10.66C9.46998 10.66 8.73998 9.92 8.73998 9.02C8.73998 8.12 9.46998 7.38 10.38 7.38C11.29 7.38 12.02 8.11 12.02 9.02C12.02 9.93 11.29 10.66 10.38 10.66ZM22.39 21H19.56V16.58C19.56 15.52 19.54 14.17 18.09 14.17C16.64 14.17 16.39 15.32 16.39 16.51V21.01H13.56V11.91H16.27V13.15H16.31C16.69 12.43 17.61 11.68 18.99 11.68C21.85 11.68 22.38 13.56 22.38 16.01V21H22.39Z" fill="black"/>
</g>
<defs>
<clipPath id="clip0_318_4432">
<rect width="29.24" height="29.24" fill="white" transform="translate(0.47998)"/>
</clipPath>
</defs>
</svg>
