<svg width="30" height="30" viewBox="0 0 30 30" fill="none" xmlns="http://www.w3.org/2000/svg">
<g clip-path="url(#clip0_318_4434)">
<path d="M16.01 7.47998C12.25 7.47998 9.20001 10.54 9.20001 14.29C9.20001 15.53 9.54001 16.75 10.2 17.82L10.38 18.11L9.70001 20.65L12.25 19.97L12.54 20.14C13.6 20.77 14.8 21.1 16.02 21.1C19.78 21.1 22.83 18.04 22.83 14.29C22.83 10.54 19.77 7.47998 16.02 7.47998H16.01ZM20.01 16.86C19.76 17.48 19.13 17.87 18.49 17.99C17.88 18.11 17.38 17.91 16.81 17.72C16.31 17.55 15.82 17.31 15.37 17.03C14.47 16.48 13.69 15.74 13.06 14.88C12.87 14.62 12.69 14.35 12.53 14.07C12.31 13.7 12.12 13.31 12.02 12.89C11.98 12.72 11.96 12.54 11.95 12.36C11.95 11.73 12.18 11.09 12.68 10.68C12.97 10.44 13.4 10.34 13.72 10.53C14.07 10.73 14.26 11.23 14.42 11.59C14.55 11.87 14.69 12.23 14.64 12.54C14.59 12.85 14.34 13.11 14.15 13.34C14.02 13.5 14 13.63 14.11 13.8C14.76 14.88 15.66 15.66 16.83 16.13C16.99 16.19 17.11 16.17 17.22 16.05C17.42 15.8 17.62 15.31 17.93 15.18C18.34 15.01 18.79 15.24 19.13 15.45C19.45 15.64 19.99 15.88 20.08 16.28C20.12 16.47 20.08 16.68 20.01 16.86Z" fill="black"/>
<path d="M22.31 0H8.37C4.16 0 0.720001 3.44 0.720001 7.65V21.59C0.720001 25.8 4.16 29.24 8.37 29.24H22.31C26.52 29.24 29.96 25.8 29.96 21.59V7.65C29.96 3.44 26.52 0 22.31 0ZM16 22.69C14.61 22.69 13.24 22.34 12.01 21.67L7.44 22.89L8.66 18.34C7.97 17.09 7.61 15.7 7.61 14.28C7.61 9.65 11.38 5.88 16.01 5.88C20.64 5.88 24.41 9.65 24.41 14.28C24.41 18.91 20.64 22.68 16.01 22.68L16 22.69Z" fill="black"/>
</g>
<defs>
<clipPath id="clip0_318_4434">
<rect width="29.24" height="29.24" fill="white" transform="translate(0.720001)"/>
</clipPath>
</defs>
</svg>
